<?xml version="1.0" encoding="UTF-8"?>
<svg version="1.1" xmlns="http://www.w3.org/2000/svg" width="801" height="801">
<path d="M0 0 C0.79696289 0.37318359 1.59392578 0.74636719 2.41503906 1.13085938 C23.42912678 11.04493568 43.38005867 23.10857354 62 37 C62.70560059 37.52303711 63.41120117 38.04607422 64.13818359 38.58496094 C74.10414756 45.99766141 83.72681306 53.73668238 93 62 C93.53012695 62.47228027 94.06025391 62.94456055 94.60644531 63.43115234 C101.38700447 69.50948396 107.92083194 75.82718459 114.375 82.25 C115.35605713 83.22404785 115.35605713 83.22404785 116.35693359 84.21777344 C120.77289835 88.64836432 124.92837504 93.25264806 129 98 C129.88927247 99.02087728 130.77859131 100.04171417 131.66796875 101.0625 C149.76742126 122.16449734 165.35573731 145.26962939 178.70654297 169.64355469 C179.89347732 171.8059349 181.10205455 173.95450883 182.31640625 176.1015625 C230.27878213 262.19142229 238.60087922 369.3707965 213 470 C210.57255589 478.41461415 207.84311958 486.71786904 205 495 C204.67725098 495.95632324 204.35450195 496.91264648 204.02197266 497.89794922 C190.63240573 537.16458768 169.6337704 574.46650946 144 607 C143.52385254 607.60473145 143.04770508 608.20946289 142.55712891 608.83251953 C135.52808523 617.72109858 128.21174155 626.22953006 120.43212891 634.46630859 C119.02137136 635.97711305 117.63777198 637.50835383 116.26171875 639.05078125 C110.04075846 646.00904053 103.45472034 652.40288939 96.51074219 658.63769531 C95.1450204 659.86922853 93.79423113 661.11727207 92.4453125 662.3671875 C36.37363833 714.02666436 -37.45950355 746.3689246 -112.25 758.25 C-113.19327148 758.40122314 -114.13654297 758.55244629 -115.10839844 758.70825195 C-134.35582128 761.57079695 -153.62836876 762.37919667 -173.0625 762.3125 C-174.17385315 762.31067719 -175.2852063 762.30885437 -176.43023682 762.30697632 C-194.13201858 762.25828666 -211.46670383 761.61080476 -229 759 C-230.2065625 758.82307617 -231.413125 758.64615234 -232.65625 758.46386719 C-305.83631139 747.42968606 -374.29665 716.56554396 -431 669 C-431.94746094 668.23816406 -432.89492188 667.47632813 -433.87109375 666.69140625 C-442.51974068 659.63103697 -450.4091169 651.80733839 -458.3125 643.9375 C-458.87212433 643.38305206 -459.43174866 642.82860413 -460.0083313 642.25735474 C-467.15788209 635.15993595 -473.72637368 627.89142033 -480 620 C-480.93469458 618.89809978 -481.87606468 617.80177485 -482.828125 616.71484375 C-503.57026975 592.92828744 -520.45960649 565.31709462 -534.07763672 536.90966797 C-534.99292021 535.01465806 -535.93366839 533.13412358 -536.87890625 531.25390625 C-579.77104053 444.67331881 -584.99266485 338.91037805 -554.43359375 236.078125 C-539.92024414 193.28582277 -519.206508 152.46517758 -491 117 C-490.27997803 116.08927734 -490.27997803 116.08927734 -489.54541016 115.16015625 C-483.15032147 107.09208249 -476.58093908 99.26349853 -469.5546875 91.73828125 C-467.12107933 89.12978075 -464.74346053 86.48009136 -462.375 83.8125 C-456.30697249 77.06303625 -449.96047977 70.69006863 -443.0625 64.7890625 C-441.64444849 63.55901024 -440.24952322 62.30194623 -438.875 61.0234375 C-431.69223925 54.35026451 -423.97460371 48.46773206 -416.13427734 42.59912109 C-414.16289597 41.12205086 -412.20007984 39.63428674 -410.23828125 38.14453125 C-380.20635854 15.52439796 -346.31349883 -2.2479032 -311 -15 C-309.95650391 -15.37753418 -308.91300781 -15.75506836 -307.83789062 -16.14404297 C-274.70939956 -27.97919144 -240.10243979 -35.40844056 -205 -38 C-204.29681641 -38.05639648 -203.59363281 -38.11279297 -202.86914062 -38.17089844 C-133.16370119 -43.63989531 -63.07372816 -29.77300139 0 0 Z " fill="#FEFEFE" transform="translate(574,39)"/>
<path d="M0 0 C1.57007813 1.13501953 1.57007813 1.13501953 3.171875 2.29296875 C4.48112456 3.21576135 5.7910848 4.13754608 7.1015625 5.05859375 C7.84760742 5.59162109 8.59365234 6.12464844 9.36230469 6.67382812 C14.02072167 9.96191336 18.76181073 13.12958314 23.48742676 16.31991577 C26.55006603 18.39003306 29.60699212 20.46854638 32.6640625 22.546875 C33.27564209 22.96254227 33.88722168 23.37820953 34.51733398 23.80647278 C41.50777896 28.55782714 48.49717055 33.31073154 55.48583984 38.06469727 C63.29404054 43.37558065 71.10713465 48.67921632 78.921875 53.98046875 C87.75882901 59.97515595 96.5926615 65.97438274 105.421875 71.98046875 C114.18908579 77.94415023 122.96004112 83.90227518 131.734375 89.85546875 C132.31619537 90.250224 132.89801575 90.64497925 133.49746704 91.05169678 C137.63881557 93.86146549 141.7803269 96.6709942 145.921875 99.48046875 C150.65115312 102.68863782 155.38035977 105.89691217 160.109375 109.10546875 C160.98246811 109.69784332 160.98246811 109.69784332 161.87319946 110.30218506 C171.08267234 116.55091667 180.28698678 122.80720164 189.48901367 129.06689453 C197.29619572 134.37698769 205.10819944 139.67993864 212.921875 144.98046875 C222.78186402 151.66914789 232.63694418 158.36498715 242.48828125 165.06640625 C250.89081385 170.78140314 259.29901578 176.48800971 267.7086792 182.19250488 C275.82583249 187.69867985 283.93815056 193.21188445 292.046875 198.73046875 C301.99305013 205.49849995 311.95549376 212.2422458 321.921875 218.98046875 C332.87238995 226.38405982 343.81713867 233.79578218 354.74243164 241.23657227 C359.70062003 244.61285661 364.66247052 247.98352414 369.63293457 251.34170532 C372.24043071 253.10340866 374.84691569 254.86660545 377.45343018 256.62976074 C378.7144058 257.48204087 379.97591329 258.33353467 381.23797607 259.1842041 C382.98680746 260.36302998 384.73381123 261.54451894 386.48046875 262.7265625 C387.98565063 263.74254517 387.98565063 263.74254517 389.52124023 264.77905273 C391.921875 266.48046875 391.921875 266.48046875 393.921875 268.48046875 C393.7831976 271.2678938 393.15440602 272.26667559 391.09613228 274.15908909 C380.02665076 280.55975716 367.80571175 279.28239194 355.40966797 279.17749023 C352.79591698 279.17740279 350.18216479 279.17995058 347.5684185 279.18490982 C341.9174759 279.19140145 336.26694002 279.17578548 330.61608124 279.14520836 C322.29224323 279.10022271 313.9686119 279.08948472 305.64466578 279.08586184 C290.97175623 279.0783899 276.29909222 279.03737359 261.62629491 278.98172901 C248.91133598 278.93364526 236.19641145 278.89754063 223.48138428 278.87341309 C222.22209782 278.87100395 222.22209782 278.87100395 220.93737124 278.86854614 C217.54103423 278.86207434 214.14469711 278.85567141 210.74835979 278.84936572 C180.16231499 278.79249844 149.57644365 278.70512187 118.99053618 278.59819475 C93.10113366 278.50777495 67.21184904 278.44564661 41.32231712 278.40926838 C22.08546086 278.3821585 2.84868014 278.34194917 -16.38811302 278.28532696 C-18.59010188 278.27885064 -20.79209073 278.27237487 -22.99407959 278.26589966 C-24.07089434 278.26270975 -25.14770909 278.25951985 -26.25715458 278.25623327 C-33.78522269 278.23465872 -41.31327831 278.22149164 -48.84136963 278.21139526 C-57.87575936 278.19892288 -66.90997089 278.17221007 -75.94425631 278.12655789 C-80.4530796 278.10405279 -84.96168869 278.0874646 -89.47057343 278.08846474 C-93.53744126 278.08919942 -97.60380167 278.07155887 -101.67053771 278.03927338 C-103.12391466 278.03086688 -104.57734887 278.0290028 -106.03073907 278.03467357 C-123.92619394 278.09536196 -139.14708803 271.91492212 -152.078125 259.48046875 C-162.46667013 247.54635852 -165.31468302 234.79042347 -165.328125 219.48046875 C-165.32879974 218.79429474 -165.32947449 218.10812073 -165.33016968 217.40115356 C-165.23236259 154.26256323 -141.81125657 92.83857761 -97.328125 47.54296875 C-96.25529334 46.51110441 -95.1722042 45.48977668 -94.078125 44.48046875 C-93.51480469 43.95839844 -92.95148438 43.43632812 -92.37109375 42.8984375 C-74.89467462 27.18805651 -25.02425239 -12.35334287 0 0 Z " fill="#2B453A" transform="translate(275.078125,278.51953125)"/>
<path d="M0 0 C0.75841187 0.0012085 1.51682373 0.00241699 2.29821777 0.00366211 C47.0470849 0.19592866 85.22867013 19.63307864 117 50.25 C133.9912606 67.6862036 146.80711363 89.14229063 156.484375 111.3671875 C160.63447328 117.6411596 166.32780796 119.55772394 173.1875 121.6875 C211.21518399 134.2938615 241.85675535 161.67376532 259.8125 197.375 C271.50024351 220.65913454 276.93885097 244.88721795 277.25 270.875 C277.28359619 272.61052124 277.28359619 272.61052124 277.31787109 274.38110352 C277.28080946 287.96419173 273.02863287 299.15886713 263.375 308.8125 C257.56223715 312.35686759 252.45502719 314.18203853 245.57763672 313.12915039 C242.45194158 312.27666299 240.30889016 311.01075926 237.609375 309.2265625 C236.64668701 308.59411621 235.68399902 307.96166992 234.69213867 307.31005859 C233.74185791 306.67148926 232.79157715 306.03291992 231.8125 305.375 C230.98790283 304.82279785 230.16330566 304.2705957 229.3137207 303.70166016 C226.82590027 302.02121263 224.34932607 300.32524834 221.875 298.625 C219.94162681 297.30176101 218.0080217 295.97886084 216.07421875 294.65625 C215.0589209 293.96144531 214.04362305 293.26664062 212.99755859 292.55078125 C207.40310012 288.72908771 201.79499751 284.92751988 196.1875 281.125 C195.00096398 280.3201683 193.81444061 279.51531793 192.62792969 278.71044922 C190.22615327 277.08126363 187.82429361 275.45220086 185.42236328 273.82324219 C179.48941653 269.79955381 173.55709401 265.77494543 167.625 261.75 C167.04320984 261.35526489 166.46141968 260.96052979 165.86199951 260.55383301 C156.65006562 254.30343725 147.44337746 248.04536017 138.23876953 241.78417969 C130.49580078 236.51793457 122.74892433 231.25747563 115 226 C114.41817963 225.60524475 113.83635925 225.2104895 113.23690796 224.80377197 C109.09555943 221.99400326 104.9540481 219.18447455 100.8125 216.375 C96.08322188 213.16683093 91.35401523 209.95855658 86.625 206.75 C85.75190689 206.15762543 85.75190689 206.15762543 84.86117554 205.55328369 C75.64951744 199.30306939 66.44310451 193.04517451 57.23876953 186.78417969 C49.49580078 181.51793457 41.74892433 176.25747563 34 171 C33.41817963 170.60524475 32.83635925 170.2104895 32.23690796 169.80377197 C28.09555943 166.99400326 23.9540481 164.18447455 19.8125 161.375 C15.08322188 158.16683093 10.35401523 154.95855658 5.625 151.75 C5.04293793 151.35508362 4.46087585 150.96016724 3.86117554 150.55328369 C-5.35048256 144.30306939 -14.55689549 138.04517451 -23.76123047 131.78417969 C-31.50419939 126.51793446 -39.25113525 121.25756365 -47 116 C-47.57882935 115.60723877 -48.15765869 115.21447754 -48.75402832 114.80981445 C-55.99186228 109.89866089 -63.23102714 104.98947554 -70.47125244 100.08184814 C-75.70173034 96.53597636 -80.92849027 92.98465047 -86.15478516 89.43261719 C-88.87423594 87.58754142 -91.59827009 85.74951645 -94.32421875 83.9140625 C-95.757938 82.94289358 -97.19154382 81.97155717 -98.625 81 C-99.23891602 80.59007812 -99.85283203 80.18015625 -100.48535156 79.7578125 C-106.9002112 75.39024849 -112.90304076 70.25109417 -114.828125 62.484375 C-116.11030816 54.95851731 -115.78799758 48.50467262 -111.97265625 41.77734375 C-95.73329025 19.92349235 -56.19148272 5.75537883 -30.3527832 1.78588867 C-20.22342394 0.5005782 -10.20661979 -0.03051306 0 0 Z " fill="#D1D2D4" transform="translate(418.1875,207.625)"/>
<path d="M0 0 C7.86195332 -0.52321231 13.88793319 2.67185921 19.85546875 7.6015625 C29.87579861 19.97961703 29.1451161 34.21947286 29.25390625 49.4140625 C29.25922993 50.1173468 29.2645536 50.8206311 29.2700386 51.54522705 C29.2965079 55.25100605 29.31598427 58.95675404 29.33056641 62.66259766 C29.34401249 65.71986089 29.37209334 68.77647346 29.41259766 71.83349609 C29.46178074 75.54856754 29.48666389 79.26304102 29.49379349 82.97842407 C29.5005089 84.38830145 29.51573893 85.79816521 29.5396843 87.20785522 C29.57117335 89.16958413 29.56838301 91.13177336 29.56396484 93.09375 C29.5720517 94.20862793 29.58013855 95.32350586 29.58847046 96.47216797 C28.98046875 99.2265625 28.98046875 99.2265625 26.62759399 101.08496094 C23.55880374 102.40841012 21.31505829 102.62708232 17.98046875 102.6015625 C16.96984375 102.60929688 15.95921875 102.61703125 14.91796875 102.625 C11.46170574 102.15619837 9.7221602 101.38054051 6.98046875 99.2265625 C6.36141968 96.52790833 6.36141968 96.52790833 6.36865234 93.22973633 C6.35869232 91.99447708 6.3487323 90.75921783 6.33847046 89.48652649 C6.35187765 88.1355482 6.36535809 86.78457063 6.37890625 85.43359375 C6.37340407 84.04455828 6.36527765 82.65553094 6.35464478 81.26652527 C6.33173218 77.60498602 6.33598249 73.94404284 6.34844971 70.2824707 C6.36672852 64.44024476 6.35660654 58.59837438 6.32258987 52.75623131 C6.31652776 50.72432116 6.32969812 48.69318084 6.34457397 46.66133118 C6.3213275 38.70613931 6.2607703 31.97547855 0.79296875 25.7265625 C-2.8809663 23.76713047 -5.99209533 23.46246399 -10.01953125 24.2265625 C-13.22656035 25.64098712 -13.22656035 25.64098712 -16.01953125 28.2265625 C-16.60904068 28.71314331 -17.19855011 29.19972412 -17.80592346 29.7010498 C-22.13665494 33.83681777 -23.51686749 37.01920196 -23.90600586 43.00976562 C-23.94667543 45.68195901 -23.95131764 48.33715259 -23.921875 51.0078125 C-23.9312727 52.43129754 -23.94373826 53.85476531 -23.9591217 55.27819824 C-23.99120042 59.00047807 -23.98196042 62.72151956 -23.96374512 66.44384766 C-23.95254537 70.25176276 -23.98093073 74.05936786 -24.00585938 77.8671875 C-24.04888352 85.32056456 -24.04820512 92.77307952 -24.01953125 100.2265625 C-27.81946535 102.30607437 -30.66360183 102.5252195 -35.01953125 102.5390625 C-36.23640625 102.55582031 -37.45328125 102.57257813 -38.70703125 102.58984375 C-42.41993844 102.18264992 -43.55155718 101.99002676 -46.01953125 99.2265625 C-46.41056874 96.09979505 -46.5455772 93.32504571 -46.50537109 90.19702148 C-46.50916779 89.27320679 -46.51296448 88.34939209 -46.51687622 87.39758301 C-46.52429579 84.33893057 -46.50288099 81.28122449 -46.48046875 78.22265625 C-46.47808527 76.10181286 -46.4771788 73.98096734 -46.47769165 71.86012268 C-46.47456133 67.41385699 -46.45797674 62.96791323 -46.43115234 58.52172852 C-46.39715159 52.81265573 -46.38952419 47.10393661 -46.39104271 41.39477444 C-46.39049979 37.01541242 -46.37954554 32.63612825 -46.36503983 28.25679207 C-46.35866056 26.15118054 -46.3547303 24.04556017 -46.35325241 21.9399395 C-46.34893255 19.00204196 -46.33146058 16.06452518 -46.31005859 13.12670898 C-46.31096497 12.25029251 -46.31187134 11.37387604 -46.31280518 10.47090149 C-46.24848617 4.45551742 -46.24848617 4.45551742 -44.01953125 2.2265625 C-41.47417984 2.02807179 -39.06236366 1.94804475 -36.51953125 1.9765625 C-35.82988281 1.96882813 -35.14023437 1.96109375 -34.4296875 1.953125 C-29.27286418 1.97322957 -29.27286418 1.97322957 -27.01953125 4.2265625 C-26.60546875 6.609375 -26.60546875 6.609375 -26.39453125 9.3515625 C-26.31976563 10.26164062 -26.245 11.17171875 -26.16796875 12.109375 C-26.11898438 12.80804688 -26.07 13.50671875 -26.01953125 14.2265625 C-25.39046875 13.62328125 -24.76140625 13.02 -24.11328125 12.3984375 C-16.37435993 5.17233627 -10.55088023 1.18365774 0 0 Z " fill="#F1F1F2" transform="translate(330.01953125,419.7734375)"/>
<path d="M0 0 C1.1456543 -0.01740234 1.1456543 -0.01740234 2.31445312 -0.03515625 C3.05501953 -0.03128906 3.79558594 -0.02742188 4.55859375 -0.0234375 C5.56684204 -0.01836182 5.56684204 -0.01836182 6.59545898 -0.01318359 C9.27987708 0.51657001 10.57398743 1.50112949 12.5625 3.375 C13.06307125 5.71916962 13.06307125 5.71916962 13.06370544 8.5369873 C13.07353958 9.60537338 13.08337372 10.67375946 13.09350586 11.77452087 C13.08383789 12.9465657 13.07416992 14.11861053 13.06420898 15.32617188 C13.06961197 16.56049454 13.07501495 17.7948172 13.08058167 19.06654358 C13.09095742 22.45317623 13.08335358 25.83883446 13.06687045 29.22538185 C13.05303137 32.76740555 13.05947872 36.30939947 13.06300354 39.85144043 C13.06570658 45.79996929 13.05222217 51.74829647 13.02905273 57.69677734 C13.00244224 64.5763803 13.00069545 71.45564602 13.0124411 78.3352828 C13.0232163 84.95025546 13.01703389 91.56510601 13.00288582 98.18006897 C12.99712372 100.99661644 12.99721041 103.81307462 13.00195122 106.62962341 C13.00760481 110.56115504 12.98841309 114.49234852 12.96655273 118.42382812 C12.97105438 119.59587296 12.97555603 120.76791779 12.98019409 121.97547913 C12.97028946 123.0438652 12.96038483 124.11225128 12.95018005 125.2130127 C12.94775016 126.14289253 12.94532026 127.07277237 12.94281673 128.03083038 C12.4872577 130.83877323 11.81930843 131.69267413 9.5625 133.375 C6.38704097 134.43348634 4.02241204 134.54170878 0.6875 134.5625 C-0.34117187 134.57667969 -1.36984375 134.59085938 -2.4296875 134.60546875 C-5.52600891 134.36821815 -7.68014588 133.78332603 -10.4375 132.375 C-11.69348523 129.86302953 -11.56895485 128.14540288 -11.57794189 125.33326721 C-11.58365204 124.2662558 -11.58936218 123.19924438 -11.59524536 122.09989929 C-11.59636322 120.92425919 -11.59748108 119.74861908 -11.59863281 118.53735352 C-11.60359772 117.30317688 -11.60856262 116.06900024 -11.61367798 114.79742432 C-11.62579911 111.40693776 -11.63324779 108.01651298 -11.63768864 104.62601209 C-11.64061797 102.50898741 -11.64472247 100.39196816 -11.64919281 98.27494621 C-11.66286811 91.65467496 -11.67253507 85.0344161 -11.6763947 78.4141317 C-11.68087818 70.76536549 -11.69843921 63.11677773 -11.7273953 55.4680658 C-11.74898847 49.55974349 -11.75909768 43.65147148 -11.76043582 37.74311012 C-11.7614854 34.21231763 -11.76742543 30.68169289 -11.78525543 27.15094185 C-11.80474709 23.21458252 -11.80045659 19.27844756 -11.79394531 15.34204102 C-11.8031601 14.16842514 -11.81237488 12.99480927 -11.8218689 11.78562927 C-11.81629974 10.71579803 -11.81073059 9.6459668 -11.80499268 8.54371643 C-11.80645924 7.61253778 -11.8079258 6.68135912 -11.8094368 5.72196293 C-11.4375 3.375 -11.4375 3.375 -10.15647507 1.57685757 C-7.13488118 -0.53575334 -3.55152321 -0.05367541 0 0 Z " fill="#EDEDEE" transform="translate(248.4375,387.625)"/>
<path d="M0 0 C2.64 0 5.28 0 8 0 C8.33 21.78 8.66 43.56 9 66 C15.64087323 57.15093465 15.64087323 57.15093465 22.125 48.1875 C25.35215417 44.12439625 25.35215417 44.12439625 28.0546875 43.60546875 C30 43.875 30 43.875 33 45 C33.75390625 47.14453125 33.75390625 47.14453125 34 50 C32.40234375 52.69921875 32.40234375 52.69921875 29.9375 55.6875 C29.01759456 56.82370525 28.0983641 57.9604572 27.1796875 59.09765625 C26.67405273 59.71398926 26.16841797 60.33032227 25.64746094 60.96533203 C22.54666802 64.79491238 19.56850997 68.72091268 16.5625 72.625 C15.37886371 74.16083177 14.19281358 75.69480747 13.00390625 77.2265625 C12.49674072 77.88221191 11.9895752 78.53786133 11.46704102 79.21337891 C7.62124798 83.89693914 7.62124798 83.89693914 3.6328125 84.55859375 C-0.34310685 83.94724271 -1.49519196 83.05655782 -3.86743164 79.8840332 C-4.48992798 78.98237427 -4.48992798 78.98237427 -5.125 78.0625 C-6.06363575 76.78633598 -7.00244595 75.51030025 -7.94140625 74.234375 C-8.67641357 73.21053711 -8.67641357 73.21053711 -9.42626953 72.16601562 C-12.22179859 68.31836843 -15.15584034 64.57641774 -18.0625 60.8125 C-19.15940347 59.38292908 -20.25457937 57.95203018 -21.34765625 56.51953125 C-21.81179932 55.91214111 -22.27594238 55.30475098 -22.75415039 54.67895508 C-26.03126118 50.26259393 -26.03126118 50.26259393 -25.6875 47.375 C-25 45 -25 45 -24 44 C-21.10721548 43.89083832 -19.62246531 43.92673298 -17 45 C-14.14785961 47.65458629 -11.95296475 50.71648953 -9.6875 53.875 C-9.06810547 54.70386719 -8.44871094 55.53273438 -7.81054688 56.38671875 C-5.46117647 59.54472154 -3.18350102 62.72474848 -1 66 C-0.67 44.22 -0.34 22.44 0 0 Z " fill="#F0F0F1" transform="translate(408,416)"/>
<path d="M0 0 C24.75 0 49.5 0 75 0 C75 4.29 75 8.58 75 13 C50.25 13 25.5 13 0 13 C0 8.71 0 4.42 0 0 Z " fill="#E4E4E4" transform="translate(376,505)"/>
</svg>
